<?xml version="1.0" standalone="no"?>
<!DOCTYPE svg PUBLIC "-//W3C//DTD SVG 20010904//EN"
 "http://www.w3.org/TR/2001/REC-SVG-20010904/DTD/svg10.dtd">
<svg version="1.0" xmlns="http://www.w3.org/2000/svg"
 width="700.000000pt" height="700.000000pt" viewBox="0 0 700.000000 700.000000"
 preserveAspectRatio="xMidYMid meet">
<metadata>
Created by potrace 1.11, written by Peter Selinger 2001-2013
</metadata>
<g transform="translate(0.000000,700.000000) scale(0.100000,-0.100000)"
fill="#000000" stroke="none">
<path d="M1836 6074 c-52 -19 -102 -58 -131 -102 -13 -20 -62 -143 -110 -272
-47 -129 -92 -251 -100 -270 -8 -19 -64 -170 -125 -335 -61 -165 -117 -316
-125 -335 -7 -19 -25 -69 -40 -110 -15 -41 -31 -84 -35 -95 -12 -27 -165 -440
-201 -542 l-29 -83 0 -1321 c0 -1476 -3 -1394 71 -1509 47 -73 128 -135 218
-166 l69 -24 2214 3 c1217 1 2223 5 2236 9 106 32 217 121 262 209 52 100 50
49 47 1484 l-2 1340 -29 65 c-16 36 -48 115 -71 175 -23 61 -121 310 -218 555
-96 245 -214 544 -261 665 -48 121 -90 229 -95 240 -5 11 -35 87 -67 168 -65
166 -98 209 -186 246 -50 21 -51 21 -1652 20 -1362 0 -1607 -3 -1640 -15z
m3250 -1089 c134 -319 249 -589 254 -600 12 -25 60 -137 60 -139 0 -1 -306 -2
-680 -2 -373 0 -681 -2 -684 -4 -2 -3 -7 -52 -10 -108 -10 -166 -54 -272 -153
-367 -100 -97 -234 -144 -399 -139 -296 8 -491 215 -496 524 -1 69 -4 83 -19
88 -10 4 -326 7 -703 6 -377 0 -686 0 -686 1 0 1 45 112 101 246 55 134 125
305 155 379 30 74 61 149 68 165 8 17 58 138 112 270 54 132 101 245 105 250
5 7 470 10 1369 10 l1361 0 245 -580z m-2510 -1339 c99 -198 265 -358 467
-451 79 -37 195 -72 267 -81 25 -3 56 -7 70 -10 32 -6 228 -6 257 0 11 3 43 8
70 12 140 20 336 107 458 204 106 84 222 231 276 348 l23 50 535 -1 536 -2 0
-1133 c0 -998 -2 -1135 -15 -1141 -21 -9 -4037 -7 -4047 3 -7 7 -13 2253 -6
2267 2 4 244 7 538 7 l535 0 36 -72z"/>
</g>
</svg>
